<?xml version="1.0" standalone="no"?>
<!DOCTYPE svg PUBLIC "-//W3C//DTD SVG 20010904//EN"
 "http://www.w3.org/TR/2001/REC-SVG-20010904/DTD/svg10.dtd">
<svg version="1.0" xmlns="http://www.w3.org/2000/svg"
 width="512.000000pt" height="512.000000pt" viewBox="0 0 512.000000 512.000000"
 preserveAspectRatio="xMidYMid meet">
<metadata>
Created by potrace 1.11, written by Peter Selinger 2001-2013
</metadata>
<g transform="translate(0.000000,512.000000) scale(0.100000,-0.100000)"
fill="#000000" stroke="none">
<path d="M2518 4695 c-2 -1 -48 -5 -103 -9 -275 -16 -527 -83 -790 -211 -155
-75 -305 -172 -435 -282 -100 -85 -235 -221 -285 -288 -17 -22 -36 -47 -44
-55 -40 -41 -160 -240 -216 -355 -120 -247 -177 -451 -210 -748 -7 -61 -8
-348 -1 -382 2 -11 7 -42 10 -70 4 -27 10 -66 12 -85 25 -178 95 -393 190
-586 251 -513 691 -900 1231 -1083 126 -43 307 -85 413 -96 36 -4 79 -9 95
-11 76 -10 357 -3 445 11 14 2 50 7 80 10 30 4 58 9 61 11 3 2 21 6 40 9 19 3
59 13 89 21 30 9 62 17 70 19 8 2 59 19 113 39 609 222 1094 716 1297 1323 44
132 85 312 95 418 4 39 9 79 11 90 5 26 5 334 0 360 -2 11 -7 49 -11 85 -4 36
-9 74 -11 85 -2 11 -6 31 -9 45 -3 14 -7 36 -10 50 -4 14 -9 39 -12 55 -13 78
-100 313 -158 430 -114 231 -228 390 -409 570 -135 135 -180 172 -316 264
-237 158 -462 254 -745 316 -140 30 -173 35 -320 41 -66 2 -130 6 -142 8 -13
2 -24 2 -25 1z m109 -228 c57 -21 122 -75 173 -144 52 -69 170 -294 170 -323
0 -9 4 -20 9 -25 8 -9 66 -185 76 -234 2 -9 10 -41 18 -71 8 -30 22 -91 31
-135 9 -44 19 -89 21 -101 l4 -20 -568 0 -569 0 5 30 c2 17 18 90 35 161 140
605 374 943 595 862z m-497 -43 c0 -3 -13 -24 -28 -47 -74 -108 -157 -293
-213 -474 -30 -100 -74 -264 -83 -318 -3 -16 -8 -40 -10 -52 -3 -11 -8 -42
-11 -67 -4 -25 -10 -47 -14 -48 -3 0 -214 -2 -468 -3 l-462 -2 29 56 c94 187
289 425 460 563 36 29 67 55 70 58 18 21 211 141 295 182 116 59 195 90 320
129 94 28 115 33 115 23z m985 -26 c194 -57 393 -156 570 -284 200 -144 393
-353 520 -566 28 -46 55 -94 61 -109 l11 -25 -463 0 -464 0 -10 35 c-5 20 -12
55 -15 78 -10 73 -72 313 -110 428 -52 154 -116 295 -182 398 -23 37 -43 70
-43 73 0 7 31 0 125 -28z m-1379 -1265 c-4 -38 -9 -102 -12 -143 -3 -41 -7
-97 -9 -125 -6 -76 -6 -530 0 -615 5 -78 9 -134 21 -257 l6 -73 -496 0 -496 0
-10 25 c-9 23 -44 155 -56 210 -8 34 -24 128 -31 180 -15 110 -7 465 12 535 2
8 6 31 9 50 6 42 51 215 65 253 l11 27 496 0 496 0 -6 -67z m1425 55 c3 -36 8
-77 13 -108 33 -212 27 -888 -9 -1115 -2 -11 -4 -26 -4 -32 -1 -10 -128 -13
-601 -13 -330 0 -600 3 -601 8 -1 4 -2 18 -3 32 -2 14 -6 48 -9 75 -15 114
-22 275 -22 525 0 286 6 407 30 595 2 17 4 33 4 38 1 4 271 7 601 7 473 0 600
-3 601 -12z m1220 -18 c50 -169 75 -282 86 -388 10 -89 10 -361 0 -442 -7 -68
-10 -83 -27 -165 -6 -27 -13 -61 -16 -75 -2 -14 -15 -59 -28 -100 l-23 -75
-497 -3 -498 -2 7 77 c11 132 14 165 20 253 7 104 7 531 0 620 -2 36 -7 97
-10 135 -2 39 -7 98 -11 133 l-6 62 498 -2 498 -3 7 -25z m-2606 -1484 c3 -12
17 -77 31 -146 66 -322 180 -629 295 -797 16 -23 29 -44 29 -47 0 -22 -271 72
-411 141 -367 181 -662 462 -844 805 -14 26 -25 51 -25 56 0 5 200 9 460 9
457 -1 461 -1 465 -21z m1350 3 c-3 -9 -8 -33 -10 -53 -9 -66 -66 -289 -107
-411 -48 -147 -141 -337 -208 -427 -80 -109 -178 -167 -262 -155 -157 21 -313
235 -429 591 -36 108 -85 295 -94 352 -3 22 -10 56 -15 74 -6 22 -6 36 0 40 6
4 262 6 570 6 524 0 560 -1 555 -17z m1128 -33 c-91 -182 -284 -420 -459 -566
-205 -173 -477 -316 -719 -379 -84 -22 -107 -26 -89 -13 16 10 94 145 136 233
53 112 141 367 162 473 3 11 14 62 25 111 11 50 22 106 25 126 11 71 -31 65
481 65 l463 0 -25 -50z"/>
</g>
</svg>
